<svg width="53" height="53" viewBox="0 0 53 53" fill="none" xmlns="http://www.w3.org/2000/svg">
<circle cx="26.2331" cy="26.4546" r="24.5" stroke="#F1F1F1" stroke-width="3" stroke-dasharray="4 4"/>
<mask id="path-2-inside-1_1_862" fill="white">
<path d="M26.2331 0.454589C21.5616 0.454589 16.9764 1.71321 12.9595 4.09812C8.94263 6.48304 5.64251 9.90614 3.40611 14.0075C1.1697 18.109 0.0796295 22.7371 0.250488 27.4055C0.421347 32.0739 1.84683 36.61 4.37706 40.537C6.9073 44.4639 10.4488 47.6366 14.6293 49.7215C18.8097 51.8064 23.4747 52.7265 28.1337 52.385C32.7927 52.0435 37.2737 50.4531 41.1054 47.7809C44.9372 45.1088 47.9783 41.4536 49.9089 37.1997L26.2331 26.4546L26.2331 0.454589Z"/>
</mask>
<path d="M26.2331 0.454589C21.5616 0.454589 16.9764 1.71321 12.9595 4.09812C8.94263 6.48304 5.64251 9.90614 3.40611 14.0075C1.1697 18.109 0.0796295 22.7371 0.250488 27.4055C0.421347 32.0739 1.84683 36.61 4.37706 40.537C6.9073 44.4639 10.4488 47.6366 14.6293 49.7215C18.8097 51.8064 23.4747 52.7265 28.1337 52.385C32.7927 52.0435 37.2737 50.4531 41.1054 47.7809C44.9372 45.1088 47.9783 41.4536 49.9089 37.1997L26.2331 26.4546L26.2331 0.454589Z" stroke="url(#paint0_linear_1_862)" stroke-width="6" mask="url(#path-2-inside-1_1_862)"/>
<circle cx="26.2331" cy="26.4546" r="23" fill="white"/>
<path d="M19.6628 20.0796V21.1108L15.1159 31.4546H13.1315L17.6706 21.5796H11.78V20.0796H19.6628ZM22.7175 29.9702H22.8737C23.5925 29.9702 24.1914 29.8765 24.6706 29.689C25.155 29.4963 25.5404 29.2306 25.8268 28.8921C26.1133 28.5535 26.319 28.1551 26.444 27.6968C26.569 27.2384 26.6315 26.741 26.6315 26.2046V24.2437C26.6315 23.7801 26.5821 23.3739 26.4831 23.0249C26.3893 22.6707 26.2539 22.3765 26.0768 22.1421C25.905 21.9025 25.7044 21.7228 25.4753 21.603C25.2513 21.4832 25.0091 21.4233 24.7487 21.4233C24.4623 21.4233 24.2044 21.4884 23.9753 21.6187C23.7513 21.7437 23.5612 21.9181 23.405 22.1421C23.2539 22.3608 23.1367 22.6187 23.0534 22.9155C22.9753 23.2072 22.9362 23.5197 22.9362 23.853C22.9362 24.1655 22.9727 24.4676 23.0456 24.7593C23.1237 25.0457 23.2383 25.3009 23.3893 25.5249C23.5404 25.7489 23.7305 25.9259 23.9597 26.0562C24.1888 26.1864 24.4571 26.2515 24.7643 26.2515C25.056 26.2515 25.3242 26.1968 25.569 26.0874C25.8138 25.9728 26.0274 25.8192 26.2097 25.6265C26.3919 25.4338 26.5352 25.2176 26.6393 24.978C26.7435 24.7384 26.8008 24.4937 26.8112 24.2437L27.53 24.4624C27.53 24.8582 27.4466 25.2489 27.28 25.6343C27.1185 26.0145 26.8919 26.3634 26.6003 26.6812C26.3138 26.9937 25.9779 27.2437 25.5925 27.4312C25.2123 27.6187 24.7982 27.7124 24.3503 27.7124C23.8086 27.7124 23.3294 27.6108 22.9128 27.4077C22.5013 27.1994 22.1576 26.9181 21.8815 26.564C21.6107 26.2098 21.4076 25.8035 21.2722 25.3452C21.1367 24.8869 21.069 24.4051 21.069 23.8999C21.069 23.353 21.1524 22.84 21.319 22.3608C21.4857 21.8817 21.7279 21.4598 22.0456 21.0952C22.3633 20.7254 22.7487 20.439 23.2018 20.2358C23.6602 20.0275 24.1784 19.9233 24.7565 19.9233C25.3711 19.9233 25.9102 20.0431 26.3737 20.2827C26.8373 20.5223 27.2279 20.853 27.5456 21.2749C27.8633 21.6968 28.1029 22.1864 28.2643 22.7437C28.4258 23.3009 28.5065 23.8999 28.5065 24.5405V25.2046C28.5065 25.8765 28.4466 26.5249 28.3268 27.1499C28.2071 27.7697 28.0117 28.3452 27.7409 28.8765C27.4753 29.4025 27.1237 29.866 26.6862 30.2671C26.2539 30.6629 25.7227 30.9728 25.0925 31.1968C24.4675 31.4155 23.7331 31.5249 22.8893 31.5249H22.7175V29.9702ZM30.2175 22.8687V22.2671C30.2175 21.8348 30.3112 21.4416 30.4987 21.0874C30.6862 20.7332 30.9597 20.4494 31.319 20.2358C31.6784 20.0223 32.1107 19.9155 32.6159 19.9155C33.1367 19.9155 33.5742 20.0223 33.9284 20.2358C34.2878 20.4494 34.5612 20.7332 34.7487 21.0874C34.9362 21.4416 35.03 21.8348 35.03 22.2671V22.8687C35.03 23.2905 34.9362 23.6785 34.7487 24.0327C34.5664 24.3869 34.2956 24.6707 33.9362 24.8843C33.5821 25.0978 33.1472 25.2046 32.6315 25.2046C32.1211 25.2046 31.6836 25.0978 31.319 24.8843C30.9597 24.6707 30.6862 24.3869 30.4987 24.0327C30.3112 23.6785 30.2175 23.2905 30.2175 22.8687ZM31.5222 22.2671V22.8687C31.5222 23.077 31.5612 23.2749 31.6393 23.4624C31.7227 23.6499 31.8477 23.8009 32.0143 23.9155C32.181 24.0301 32.3867 24.0874 32.6315 24.0874C32.8815 24.0874 33.0847 24.0301 33.2409 23.9155C33.4024 23.8009 33.5222 23.6499 33.6003 23.4624C33.6784 23.2749 33.7175 23.077 33.7175 22.8687V22.2671C33.7175 22.0535 33.6758 21.853 33.5925 21.6655C33.5143 21.4728 33.3946 21.3192 33.2331 21.2046C33.0716 21.09 32.8659 21.0327 32.6159 21.0327C32.3763 21.0327 32.1732 21.09 32.0065 21.2046C31.8451 21.3192 31.7227 21.4728 31.6393 21.6655C31.5612 21.853 31.5222 22.0535 31.5222 22.2671ZM35.7018 29.2749V28.6655C35.7018 28.2384 35.7956 27.8478 35.9831 27.4937C36.1758 27.1395 36.4518 26.8556 36.8112 26.6421C37.1706 26.4285 37.6029 26.3218 38.1081 26.3218C38.6289 26.3218 39.0664 26.4285 39.4206 26.6421C39.78 26.8556 40.0508 27.1395 40.2331 27.4937C40.4206 27.8478 40.5143 28.2384 40.5143 28.6655V29.2749C40.5143 29.702 40.4206 30.0926 40.2331 30.4468C40.0508 30.8009 39.7826 31.0848 39.4284 31.2983C39.0742 31.5119 38.6419 31.6187 38.1315 31.6187C37.6159 31.6187 37.1758 31.5119 36.8112 31.2983C36.4518 31.0848 36.1758 30.8009 35.9831 30.4468C35.7956 30.0926 35.7018 29.702 35.7018 29.2749ZM37.0143 28.6655V29.2749C37.0143 29.4832 37.056 29.6812 37.1393 29.8687C37.2279 30.0562 37.3555 30.2098 37.5222 30.3296C37.6888 30.4442 37.8893 30.5015 38.1237 30.5015C38.3893 30.5015 38.6029 30.4442 38.7643 30.3296C38.9258 30.2098 39.0404 30.0588 39.1081 29.8765C39.181 29.689 39.2175 29.4884 39.2175 29.2749V28.6655C39.2175 28.452 39.1758 28.2515 39.0925 28.064C39.0143 27.8765 38.8919 27.7254 38.7253 27.6108C38.5638 27.4963 38.3581 27.439 38.1081 27.439C37.8633 27.439 37.6602 27.4963 37.4987 27.6108C37.3373 27.7254 37.2149 27.8765 37.1315 28.064C37.0534 28.2515 37.0143 28.452 37.0143 28.6655ZM38.5768 21.7046L33.0222 30.5952L32.0612 30.0405L37.6159 21.1499L38.5768 21.7046Z" fill="black"/>
<defs>
<linearGradient id="paint0_linear_1_862" x1="26.2331" y1="0.454589" x2="26.2331" y2="49.3346" gradientUnits="userSpaceOnUse">
<stop stop-color="#B176F2"/>
<stop offset="1" stop-color="#FAC1F1"/>
</linearGradient>
</defs>
</svg>
